<?xml version="1.0" standalone="no"?>
<!DOCTYPE svg PUBLIC "-//W3C//DTD SVG 20010904//EN"
 "http://www.w3.org/TR/2001/REC-SVG-20010904/DTD/svg10.dtd">
<svg version="1.0" xmlns="http://www.w3.org/2000/svg"
 width="700.000000pt" height="700.000000pt" viewBox="0 0 700.000000 700.000000"
 preserveAspectRatio="xMidYMid meet">
<metadata>
Created by potrace 1.11, written by Peter Selinger 2001-2013
</metadata>
<g transform="translate(0.000000,700.000000) scale(0.100000,-0.100000)"
fill="#000000" stroke="none">
<path d="M3255 6934 c-279 -28 -419 -50 -615 -100 -1176 -295 -2119 -1204
-2460 -2370 -96 -328 -134 -606 -134 -969 0 -279 12 -422 60 -669 268 -1384
1392 -2484 2784 -2725 238 -41 301 -46 600 -45 321 0 419 9 692 65 995 202
1853 842 2340 1744 207 384 324 754 390 1235 20 148 17 672 -6 830 -126 896
-553 1667 -1228 2223 -509 419 -1095 671 -1773 762 -114 16 -555 28 -650 19z
m-1324 -1579 c24 -9 107 -61 184 -116 77 -55 146 -104 154 -108 11 -7 -66
-100 -313 -385 -181 -207 -332 -376 -338 -376 -5 0 -79 50 -164 110 -182 131
-209 165 -209 265 0 41 6 72 20 97 25 46 376 451 416 478 68 49 168 63 250 35z
m1698 -1189 l1111 -788 -33 -39 c-172 -204 -624 -717 -630 -716 -13 4 -2236
1582 -2237 1588 0 4 147 175 327 382 204 234 331 373 339 369 6 -4 511 -362
1123 -796z m1512 -1394 c108 -235 195 -428 194 -430 -3 -3 -1018 137 -1022
142 -4 4 618 716 625 716 4 0 95 -192 203 -428z m394 -414 c57 -53 60 -127 8
-188 -14 -18 -36 -60 -48 -94 -41 -118 -121 -205 -316 -348 -63 -47 -130 -102
-147 -124 -68 -82 -63 -161 19 -322 66 -130 83 -188 77 -277 -19 -296 -436
-476 -1298 -559 -323 -31 -801 -56 -1091 -56 l-146 0 -31 -40 c-90 -111 -254
-35 -228 105 18 97 142 134 214 64 l29 -28 324 9 c323 9 381 12 664 31 710 47
1198 162 1372 322 110 101 115 205 18 382 -59 110 -79 181 -73 270 8 118 59
183 250 321 131 95 229 195 254 260 l17 44 -36 35 c-89 86 -36 225 86 225 40
0 53 -5 82 -32z"/>
</g>
</svg>
