<svg width="61" height="61" xmlns="http://www.w3.org/2000/svg">

 <g>
  <title>background</title>
  <rect fill="none" id="canvas_background" height="63" width="63" y="-1" x="-1"/>
 </g>
 <g>
  <title>Layer 1</title>
  <ellipse stroke="#000" fill="#1e88e5" stroke-width="0" cx="30.383085" cy="30.547771" id="svg_3" rx="30" ry="30"/>
  <path stroke="#000" transform="rotate(-84 28.97870254516602,27.157327651977543) " id="svg_11" d="m39.615803,11.247295l-3.782584,-2.654933c-0.954365,-0.669192 -2.211892,-0.347111 -2.813235,0.718847l-1.490932,2.649981l7.23624,5.075357l1.492103,-2.648754c0.599069,-1.067229 0.313153,-2.472802 -0.641591,-3.140497l0,0zm-20.963654,23.60849l7.23663,5.0753l11.794514,-20.967231l-7.240086,-5.076628l-11.791058,20.968559l0,0zm-1.1054,6.448359l-0.159832,4.767141l3.776775,-2.230808l3.509701,-2.069385l-6.981407,-4.899393l-0.145238,4.432444l0,0l0,0z" stroke-opacity="null" stroke-width="0" fill="#ffffff"/>
  <path stroke="#ffffff" id="svg_12" d="m21.457139,57.180238c17.53222,-0.133552 25.128814,-2.095688 22.194452,-7.040252c-2.934363,-4.944563 4.263693,-3.877148 4.063798,-9.053325" fill="none"/>
  <ellipse stroke="#ffffff" ry="0.677711" rx="0.677711" id="svg_14" cy="41.287754" cx="47.503025" fill="#ffffff"/>
  <ellipse stroke="#ffffff" ry="0.677711" rx="0.677711" id="svg_2" cy="57.287748" cx="21.434071" fill="#ffffff"/>
 </g>
</svg>