<?xml version="1.0" encoding="UTF-8" standalone="no"?>
<!DOCTYPE svg PUBLIC "-//W3C//DTD SVG 1.1//EN"
 "http://www.w3.org/Graphics/SVG/1.1/DTD/svg11.dtd">
<!-- Generated by graphviz version 2.40.1 (20161225.0304)
 -->
<!-- Title: dependencies Pages: 1 -->
<svg width="1814pt" height="284pt"
 viewBox="0.00 0.00 1814.00 284.00" xmlns="http://www.w3.org/2000/svg" xmlns:xlink="http://www.w3.org/1999/xlink">
<g id="graph0" class="graph" transform="scale(1 1) rotate(0) translate(4 280)">
<title>dependencies</title>
<polygon fill="#ffffff" stroke="transparent" points="-4,4 -4,-280 1810,-280 1810,4 -4,4"/>
<text text-anchor="start" x="882.0091" y="-42.4" font-family="sans-serif" font-weight="bold" font-size="14.00" fill="#000000">Legend</text>
<polygon fill="#ffffb3" stroke="transparent" points="669,-10 669,-30 689,-30 689,-10 669,-10"/>
<text text-anchor="start" x="692.629" y="-15.4" font-family="sans-serif" font-size="14.00" fill="#000000"> &#160;Declarations</text>
<polygon fill="#8dd3c7" stroke="transparent" points="782,-10 782,-30 802,-30 802,-10 782,-10"/>
<text text-anchor="start" x="805.7251" y="-15.4" font-family="sans-serif" font-size="14.00" fill="#000000"> &#160;Module</text>
<polygon fill="#80b1d3" stroke="transparent" points="868,-10 868,-30 888,-30 888,-10 868,-10"/>
<text text-anchor="start" x="891.7812" y="-15.4" font-family="sans-serif" font-size="14.00" fill="#000000"> &#160;Bootstrap</text>
<polygon fill="#fdb462" stroke="transparent" points="965,-10 965,-30 985,-30 985,-10 965,-10"/>
<text text-anchor="start" x="988.6732" y="-15.4" font-family="sans-serif" font-size="14.00" fill="#000000"> &#160;Providers</text>
<polygon fill="#fb8072" stroke="transparent" points="1061,-10 1061,-30 1081,-30 1081,-10 1061,-10"/>
<text text-anchor="start" x="1084.7258" y="-15.4" font-family="sans-serif" font-size="14.00" fill="#000000"> &#160;Exports</text>
<g id="clust1" class="cluster">
<title>cluster_AppModule</title>
<polygon fill="none" stroke="#000000" stroke-dasharray="1,5" points="8,-70 8,-268 1798,-268 1798,-70 8,-70"/>
</g>
<g id="clust2" class="cluster">
<title>cluster_AppModule_declarations</title>
<polygon fill="none" stroke="#000000" points="914,-78 914,-130 1790,-130 1790,-78 914,-78"/>
</g>
<g id="clust9" class="cluster">
<title>cluster_AppModule_imports</title>
<polygon fill="none" stroke="#000000" points="422,-78 422,-130 906,-130 906,-78 422,-78"/>
</g>
<g id="clust11" class="cluster">
<title>cluster_AppModule_bootstrap</title>
<polygon fill="none" stroke="#000000" points="929,-208 929,-260 1053,-260 1053,-208 929,-208"/>
</g>
<g id="clust12" class="cluster">
<title>cluster_AppModule_providers</title>
<polygon fill="none" stroke="#000000" points="16,-78 16,-130 414,-130 414,-78 16,-78"/>
</g>
<!-- AppComponent -->
<g id="node1" class="node">
<title>AppComponent</title>
<polygon fill="#ffffb3" stroke="#000000" points="1781.9399,-122 1676.0601,-122 1676.0601,-86 1781.9399,-86 1781.9399,-122"/>
<text text-anchor="middle" x="1729" y="-99.8" font-family="Times,serif" font-size="14.00" fill="#000000">AppComponent</text>
</g>
<!-- AppModule -->
<g id="node7" class="node">
<title>AppModule</title>
<polygon fill="#8dd3c7" stroke="#000000" points="1032.6571,-187 1029.6571,-191 1008.6571,-191 1005.6571,-187 949.3429,-187 949.3429,-151 1032.6571,-151 1032.6571,-187"/>
<text text-anchor="middle" x="991" y="-164.8" font-family="Times,serif" font-size="14.00" fill="#000000">AppModule</text>
</g>
<!-- AppComponent&#45;&gt;AppModule -->
<g id="edge1" class="edge">
<title>AppComponent&#45;&gt;AppModule</title>
<path fill="none" stroke="#000000" d="M1729,-122.2479C1729,-145.0179 1729,-181 1729,-181 1729,-181 1042.7926,-181 1042.7926,-181"/>
<polygon fill="#000000" stroke="#000000" points="1042.7926,-177.5001 1032.7926,-181 1042.7926,-184.5001 1042.7926,-177.5001"/>
</g>
<!-- ImageComponent -->
<g id="node2" class="node">
<title>ImageComponent</title>
<polygon fill="#ffffb3" stroke="#000000" points="1658.3132,-122 1541.6868,-122 1541.6868,-86 1658.3132,-86 1658.3132,-122"/>
<text text-anchor="middle" x="1600" y="-99.8" font-family="Times,serif" font-size="14.00" fill="#000000">ImageComponent</text>
</g>
<!-- ImageComponent&#45;&gt;AppModule -->
<g id="edge2" class="edge">
<title>ImageComponent&#45;&gt;AppModule</title>
<path fill="none" stroke="#000000" d="M1600,-122.2843C1600,-143.3211 1600,-175 1600,-175 1600,-175 1042.859,-175 1042.859,-175"/>
<polygon fill="#000000" stroke="#000000" points="1042.8591,-171.5001 1032.859,-175 1042.859,-178.5001 1042.8591,-171.5001"/>
</g>
<!-- DrawAreaComponent -->
<g id="node3" class="node">
<title>DrawAreaComponent</title>
<polygon fill="#ffffb3" stroke="#000000" points="1523.6177,-122 1384.3823,-122 1384.3823,-86 1523.6177,-86 1523.6177,-122"/>
<text text-anchor="middle" x="1454" y="-99.8" font-family="Times,serif" font-size="14.00" fill="#000000">DrawAreaComponent</text>
</g>
<!-- DrawAreaComponent&#45;&gt;AppModule -->
<g id="edge3" class="edge">
<title>DrawAreaComponent&#45;&gt;AppModule</title>
<path fill="none" stroke="#000000" d="M1454,-122.1061C1454,-141.3391 1454,-169 1454,-169 1454,-169 1042.9048,-169 1042.9048,-169"/>
<polygon fill="#000000" stroke="#000000" points="1042.9048,-165.5001 1032.9048,-169 1042.9047,-172.5001 1042.9048,-165.5001"/>
</g>
<!-- ToolsBoxComponent -->
<g id="node4" class="node">
<title>ToolsBoxComponent</title>
<polygon fill="#ffffb3" stroke="#000000" points="1366.0575,-122 1229.9425,-122 1229.9425,-86 1366.0575,-86 1366.0575,-122"/>
<text text-anchor="middle" x="1298" y="-99.8" font-family="Times,serif" font-size="14.00" fill="#000000">ToolsBoxComponent</text>
</g>
<!-- ToolsBoxComponent&#45;&gt;AppModule -->
<g id="edge4" class="edge">
<title>ToolsBoxComponent&#45;&gt;AppModule</title>
<path fill="none" stroke="#000000" d="M1298,-122.0225C1298,-139.3734 1298,-163 1298,-163 1298,-163 1042.7229,-163 1042.7229,-163"/>
<polygon fill="#000000" stroke="#000000" points="1042.7229,-159.5001 1032.7229,-163 1042.7229,-166.5001 1042.7229,-159.5001"/>
</g>
<!-- MenuBarComponent -->
<g id="node5" class="node">
<title>MenuBarComponent</title>
<polygon fill="#ffffb3" stroke="#000000" points="1212.2036,-122 1077.7964,-122 1077.7964,-86 1212.2036,-86 1212.2036,-122"/>
<text text-anchor="middle" x="1145" y="-99.8" font-family="Times,serif" font-size="14.00" fill="#000000">MenuBarComponent</text>
</g>
<!-- MenuBarComponent&#45;&gt;AppModule -->
<g id="edge5" class="edge">
<title>MenuBarComponent&#45;&gt;AppModule</title>
<path fill="none" stroke="#000000" d="M1145,-122.2396C1145,-137.5706 1145,-157 1145,-157 1145,-157 1042.6746,-157 1042.6746,-157"/>
<polygon fill="#000000" stroke="#000000" points="1042.6747,-153.5001 1032.6746,-157 1042.6746,-160.5001 1042.6747,-153.5001"/>
</g>
<!-- PropertiesComponent -->
<g id="node6" class="node">
<title>PropertiesComponent</title>
<polygon fill="#ffffb3" stroke="#000000" points="1060.0912,-122 921.9088,-122 921.9088,-86 1060.0912,-86 1060.0912,-122"/>
<text text-anchor="middle" x="991" y="-99.8" font-family="Times,serif" font-size="14.00" fill="#000000">PropertiesComponent</text>
</g>
<!-- PropertiesComponent&#45;&gt;AppModule -->
<g id="edge6" class="edge">
<title>PropertiesComponent&#45;&gt;AppModule</title>
<path fill="none" stroke="#000000" d="M991,-122.1061C991,-122.1061 991,-140.991 991,-140.991"/>
<polygon fill="#000000" stroke="#000000" points="987.5001,-140.9909 991,-150.991 994.5001,-140.991 987.5001,-140.9909"/>
</g>
<!-- AppComponent  -->
<g id="node12" class="node">
<title>AppComponent </title>
<polygon fill="#80b1d3" stroke="#000000" points="1045.439,-252 936.561,-252 936.561,-216 1045.439,-216 1045.439,-252"/>
<text text-anchor="middle" x="991" y="-229.8" font-family="Times,serif" font-size="14.00" fill="#000000">AppComponent </text>
</g>
<!-- AppModule&#45;&gt;AppComponent  -->
<g id="edge11" class="edge">
<title>AppModule&#45;&gt;AppComponent </title>
<path fill="none" stroke="#000000" stroke-dasharray="1,5" d="M991,-187.1061C991,-187.1061 991,-205.991 991,-205.991"/>
<polygon fill="#000000" stroke="#000000" points="987.5001,-205.9909 991,-215.991 994.5001,-205.991 987.5001,-205.9909"/>
</g>
<!-- BrowserModule -->
<g id="node8" class="node">
<title>BrowserModule</title>
<polygon fill="#8dd3c7" stroke="#000000" points="898.4734,-122 895.4734,-126 874.4734,-126 871.4734,-122 791.5266,-122 791.5266,-86 898.4734,-86 898.4734,-122"/>
<text text-anchor="middle" x="845" y="-99.8" font-family="Times,serif" font-size="14.00" fill="#000000">BrowserModule</text>
</g>
<!-- BrowserModule&#45;&gt;AppModule -->
<g id="edge7" class="edge">
<title>BrowserModule&#45;&gt;AppModule</title>
<path fill="none" stroke="#000000" d="M845,-122.2396C845,-137.5706 845,-157 845,-157 845,-157 939.1623,-157 939.1623,-157"/>
<polygon fill="#000000" stroke="#000000" points="939.1623,-160.5001 949.1623,-157 939.1622,-153.5001 939.1623,-160.5001"/>
</g>
<!-- FormsModule -->
<g id="node9" class="node">
<title>FormsModule</title>
<polygon fill="#8dd3c7" stroke="#000000" points="773.8288,-122 770.8288,-126 749.8288,-126 746.8288,-122 678.1712,-122 678.1712,-86 773.8288,-86 773.8288,-122"/>
<text text-anchor="middle" x="726" y="-99.8" font-family="Times,serif" font-size="14.00" fill="#000000">FormsModule</text>
</g>
<!-- FormsModule&#45;&gt;AppModule -->
<g id="edge8" class="edge">
<title>FormsModule&#45;&gt;AppModule</title>
<path fill="none" stroke="#000000" d="M726,-122.0225C726,-139.3734 726,-163 726,-163 726,-163 939.3022,-163 939.3022,-163"/>
<polygon fill="#000000" stroke="#000000" points="939.3023,-166.5001 949.3022,-163 939.3022,-159.5001 939.3023,-166.5001"/>
</g>
<!-- HttpModule -->
<g id="node10" class="node">
<title>HttpModule</title>
<polygon fill="#8dd3c7" stroke="#000000" points="660.4387,-122 657.4387,-126 636.4387,-126 633.4387,-122 575.5613,-122 575.5613,-86 660.4387,-86 660.4387,-122"/>
<text text-anchor="middle" x="618" y="-99.8" font-family="Times,serif" font-size="14.00" fill="#000000">HttpModule</text>
</g>
<!-- HttpModule&#45;&gt;AppModule -->
<g id="edge9" class="edge">
<title>HttpModule&#45;&gt;AppModule</title>
<path fill="none" stroke="#000000" d="M618,-122.1061C618,-141.3391 618,-169 618,-169 618,-169 939.2979,-169 939.2979,-169"/>
<polygon fill="#000000" stroke="#000000" points="939.2979,-172.5001 949.2979,-169 939.2979,-165.5001 939.2979,-172.5001"/>
</g>
<!-- ColorPickerModule -->
<g id="node11" class="node">
<title>ColorPickerModule</title>
<polygon fill="#8dd3c7" stroke="#000000" points="557.7008,-122 554.7008,-126 533.7008,-126 530.7008,-122 430.2992,-122 430.2992,-86 557.7008,-86 557.7008,-122"/>
<text text-anchor="middle" x="494" y="-99.8" font-family="Times,serif" font-size="14.00" fill="#000000">ColorPickerModule</text>
</g>
<!-- ColorPickerModule&#45;&gt;AppModule -->
<g id="edge10" class="edge">
<title>ColorPickerModule&#45;&gt;AppModule</title>
<path fill="none" stroke="#000000" d="M494,-122.2843C494,-143.3211 494,-175 494,-175 494,-175 939.0544,-175 939.0544,-175"/>
<polygon fill="#000000" stroke="#000000" points="939.0544,-178.5001 949.0544,-175 939.0544,-171.5001 939.0544,-178.5001"/>
</g>
<!-- { provide: APP_BASE_HREF, useValue: &#39;/&#39; } -->
<g id="node13" class="node">
<title>{ provide: APP_BASE_HREF, useValue: &#39;/&#39; }</title>
<ellipse fill="#fdb462" stroke="#000000" cx="215" cy="-104" rx="191.343" ry="18"/>
<text text-anchor="middle" x="215" y="-99.8" font-family="Times,serif" font-size="14.00" fill="#000000">{ provide: APP_BASE_HREF, useValue: &#39;/&#39; }</text>
</g>
<!-- { provide: APP_BASE_HREF, useValue: &#39;/&#39; }&#45;&gt;AppModule -->
<g id="edge12" class="edge">
<title>{ provide: APP_BASE_HREF, useValue: &#39;/&#39; }&#45;&gt;AppModule</title>
<path fill="none" stroke="#000000" d="M215,-122.2479C215,-145.0179 215,-181 215,-181 215,-181 939.2789,-181 939.2789,-181"/>
<polygon fill="#000000" stroke="#000000" points="939.2789,-184.5001 949.2789,-181 939.2788,-177.5001 939.2789,-184.5001"/>
</g>
</g>
</svg>
