<?xml version="1.0" encoding="UTF-8" standalone="no"?>
<!DOCTYPE svg PUBLIC "-//W3C//DTD SVG 1.1//EN"
 "http://www.w3.org/Graphics/SVG/1.1/DTD/svg11.dtd">
<!-- Generated by graphviz version 2.40.1 (20161225.0304)
 -->
<!-- Title: dependencies Pages: 1 -->
<svg width="524pt" height="284pt"
 viewBox="0.00 0.00 524.00 284.00" xmlns="http://www.w3.org/2000/svg" xmlns:xlink="http://www.w3.org/1999/xlink">
<g id="graph0" class="graph" transform="scale(1 1) rotate(0) translate(4 280)">
<title>dependencies</title>
<polygon fill="#ffffff" stroke="transparent" points="-4,4 -4,-280 520,-280 520,4 -4,4"/>
<text text-anchor="start" x="237.0091" y="-42.4" font-family="sans-serif" font-weight="bold" font-size="14.00" fill="#000000">Legend</text>
<polygon fill="#ffffb3" stroke="transparent" points="24,-10 24,-30 44,-30 44,-10 24,-10"/>
<text text-anchor="start" x="47.629" y="-15.4" font-family="sans-serif" font-size="14.00" fill="#000000"> &#160;Declarations</text>
<polygon fill="#8dd3c7" stroke="transparent" points="137,-10 137,-30 157,-30 157,-10 137,-10"/>
<text text-anchor="start" x="160.7251" y="-15.4" font-family="sans-serif" font-size="14.00" fill="#000000"> &#160;Module</text>
<polygon fill="#80b1d3" stroke="transparent" points="223,-10 223,-30 243,-30 243,-10 223,-10"/>
<text text-anchor="start" x="246.7812" y="-15.4" font-family="sans-serif" font-size="14.00" fill="#000000"> &#160;Bootstrap</text>
<polygon fill="#fdb462" stroke="transparent" points="320,-10 320,-30 340,-30 340,-10 320,-10"/>
<text text-anchor="start" x="343.6732" y="-15.4" font-family="sans-serif" font-size="14.00" fill="#000000"> &#160;Providers</text>
<polygon fill="#fb8072" stroke="transparent" points="416,-10 416,-30 436,-30 436,-10 416,-10"/>
<text text-anchor="start" x="439.7258" y="-15.4" font-family="sans-serif" font-size="14.00" fill="#000000"> &#160;Exports</text>
<g id="clust1" class="cluster">
<title>cluster_AppModule</title>
<polygon fill="none" stroke="#000000" stroke-dasharray="1,5" points="8,-70 8,-268 508,-268 508,-70 8,-70"/>
</g>
<g id="clust3" class="cluster">
<title>cluster_AppModule_imports</title>
<polygon fill="none" stroke="#000000" points="16,-78 16,-130 500,-130 500,-78 16,-78"/>
</g>
<g id="clust5" class="cluster">
<title>cluster_AppModule_bootstrap</title>
<polygon fill="none" stroke="#000000" points="204,-208 204,-260 328,-260 328,-208 204,-208"/>
</g>
<!-- BrowserModule -->
<g id="node1" class="node">
<title>BrowserModule</title>
<polygon fill="#8dd3c7" stroke="#000000" points="492.4734,-122 489.4734,-126 468.4734,-126 465.4734,-122 385.5266,-122 385.5266,-86 492.4734,-86 492.4734,-122"/>
<text text-anchor="middle" x="439" y="-99.8" font-family="Times,serif" font-size="14.00" fill="#000000">BrowserModule</text>
</g>
<!-- AppModule -->
<g id="node5" class="node">
<title>AppModule</title>
<polygon fill="#8dd3c7" stroke="#000000" points="307.6571,-187 304.6571,-191 283.6571,-191 280.6571,-187 224.3429,-187 224.3429,-151 307.6571,-151 307.6571,-187"/>
<text text-anchor="middle" x="266" y="-164.8" font-family="Times,serif" font-size="14.00" fill="#000000">AppModule</text>
</g>
<!-- BrowserModule&#45;&gt;AppModule -->
<g id="edge1" class="edge">
<title>BrowserModule&#45;&gt;AppModule</title>
<path fill="none" stroke="#000000" d="M439,-122.1061C439,-141.3391 439,-169 439,-169 439,-169 317.8785,-169 317.8785,-169"/>
<polygon fill="#000000" stroke="#000000" points="317.8785,-165.5001 307.8785,-169 317.8784,-172.5001 317.8785,-165.5001"/>
</g>
<!-- FormsModule -->
<g id="node2" class="node">
<title>FormsModule</title>
<polygon fill="#8dd3c7" stroke="#000000" points="367.8288,-122 364.8288,-126 343.8288,-126 340.8288,-122 272.1712,-122 272.1712,-86 367.8288,-86 367.8288,-122"/>
<text text-anchor="middle" x="320" y="-99.8" font-family="Times,serif" font-size="14.00" fill="#000000">FormsModule</text>
</g>
<!-- FormsModule&#45;&gt;AppModule -->
<g id="edge2" class="edge">
<title>FormsModule&#45;&gt;AppModule</title>
<path fill="none" stroke="#000000" d="M290.0821,-122.1061C290.0821,-122.1061 290.0821,-140.991 290.0821,-140.991"/>
<polygon fill="#000000" stroke="#000000" points="286.5821,-140.9909 290.0821,-150.991 293.5821,-140.991 286.5821,-140.9909"/>
</g>
<!-- HttpModule -->
<g id="node3" class="node">
<title>HttpModule</title>
<polygon fill="#8dd3c7" stroke="#000000" points="254.4387,-122 251.4387,-126 230.4387,-126 227.4387,-122 169.5613,-122 169.5613,-86 254.4387,-86 254.4387,-122"/>
<text text-anchor="middle" x="212" y="-99.8" font-family="Times,serif" font-size="14.00" fill="#000000">HttpModule</text>
</g>
<!-- HttpModule&#45;&gt;AppModule -->
<g id="edge3" class="edge">
<title>HttpModule&#45;&gt;AppModule</title>
<path fill="none" stroke="#000000" d="M239.1953,-122.1061C239.1953,-122.1061 239.1953,-140.991 239.1953,-140.991"/>
<polygon fill="#000000" stroke="#000000" points="235.6954,-140.9909 239.1953,-150.991 242.6954,-140.991 235.6954,-140.9909"/>
</g>
<!-- ColorPickerModule -->
<g id="node4" class="node">
<title>ColorPickerModule</title>
<polygon fill="#8dd3c7" stroke="#000000" points="151.7008,-122 148.7008,-126 127.7008,-126 124.7008,-122 24.2992,-122 24.2992,-86 151.7008,-86 151.7008,-122"/>
<text text-anchor="middle" x="88" y="-99.8" font-family="Times,serif" font-size="14.00" fill="#000000">ColorPickerModule</text>
</g>
<!-- ColorPickerModule&#45;&gt;AppModule -->
<g id="edge4" class="edge">
<title>ColorPickerModule&#45;&gt;AppModule</title>
<path fill="none" stroke="#000000" d="M88,-122.1061C88,-141.3391 88,-169 88,-169 88,-169 214.2669,-169 214.2669,-169"/>
<polygon fill="#000000" stroke="#000000" points="214.2669,-172.5001 224.2669,-169 214.2669,-165.5001 214.2669,-172.5001"/>
</g>
<!-- AppComponent  -->
<g id="node6" class="node">
<title>AppComponent </title>
<polygon fill="#80b1d3" stroke="#000000" points="320.439,-252 211.561,-252 211.561,-216 320.439,-216 320.439,-252"/>
<text text-anchor="middle" x="266" y="-229.8" font-family="Times,serif" font-size="14.00" fill="#000000">AppComponent </text>
</g>
<!-- AppModule&#45;&gt;AppComponent  -->
<g id="edge5" class="edge">
<title>AppModule&#45;&gt;AppComponent </title>
<path fill="none" stroke="#000000" stroke-dasharray="1,5" d="M266,-187.1061C266,-187.1061 266,-205.991 266,-205.991"/>
<polygon fill="#000000" stroke="#000000" points="262.5001,-205.9909 266,-215.991 269.5001,-205.991 262.5001,-205.9909"/>
</g>
</g>
</svg>
